<svg width="163" height="129" viewBox="0 0 163 129" fill="none" xmlns="http://www.w3.org/2000/svg">
<g style="mix-blend-mode:difference" clip-path="url(#clip0_297_17084)">
<path d="M140.16 32.4948C140.16 31.0866 139.274 30.3042 137.608 30.3042H134.952V36.6418H136.618V34.5299H137.295L138.618 36.6418H140.665L139.013 34.3734C139.794 34.0083 140.159 33.2781 140.159 32.4957L140.16 32.4948ZM137.712 33.0695H136.618V31.8177H137.712C138.337 31.8177 138.597 32.0263 138.597 32.4957C138.597 32.8608 138.337 33.0695 137.712 33.0695Z" fill="black"/>
<path d="M137.43 40.2591C133.762 40.2591 130.777 37.2696 130.777 33.5957C130.777 29.9218 133.762 26.9324 137.43 26.9324C141.099 26.9324 144.084 29.9218 144.084 33.5957C144.084 37.2696 141.099 40.2591 137.43 40.2591ZM137.43 28.6014C134.68 28.6014 132.443 30.8414 132.443 33.5957C132.443 36.35 134.68 38.59 137.43 38.59C140.181 38.59 142.417 36.35 142.417 33.5957C142.417 30.8414 140.181 28.6014 137.43 28.6014Z" fill="black"/>
<path d="M121.046 129H41.954C29.1642 129 22.7436 129 16.938 126.32C10.6427 123.414 5.57809 118.341 2.67621 112.037C0 106.222 0 99.7927 0 86.984V42.0169C0 29.2082 0 22.7782 2.67621 16.964C5.57901 10.6593 10.6436 5.58634 16.9389 2.68016C22.7445 0 29.1642 0 41.954 0H121.046C133.836 0 140.256 0 146.062 2.68016C152.357 5.58634 157.422 10.6593 160.324 16.9631C163 22.7772 163 29.2063 163 42.016V86.9831C163 99.7918 163 106.222 160.324 112.036C157.422 118.341 152.356 123.413 146.062 126.319C140.256 128.999 133.837 128.999 121.046 128.999V129ZM13.2705 21.8549C11.666 25.3412 11.666 30.9138 11.666 42.0169V86.984C11.666 98.0862 11.666 103.659 13.2705 107.146C15.0101 110.926 18.0473 113.968 21.8226 115.711C25.3038 117.319 30.8682 117.319 41.9549 117.319H121.047C132.133 117.319 137.697 117.319 141.179 115.711C144.954 113.969 147.991 110.927 149.731 107.146C151.337 103.66 151.337 98.0862 151.337 86.984V42.0169C151.337 30.9147 151.337 25.3421 149.732 21.8549C147.992 18.0748 144.955 15.0332 141.18 13.2901C137.699 11.6833 132.135 11.6833 121.048 11.6833H41.954C30.8682 11.6833 25.3038 11.6833 21.8217 13.2901C18.0473 15.0323 15.0101 18.0748 13.2696 21.8549H13.2705Z" fill="black"/>
<path d="M68.3333 63.0017C72.793 59.6801 75.8475 53.9775 75.8475 47.8998C75.8475 36.5405 65.8709 26.7239 53.6073 26.7239C42.2017 26.7239 32.7742 35.2146 31.5106 45.5408L43.2634 47.8824C43.9715 42.9641 46.984 38.1985 53.6073 38.1985C59.2631 38.1985 63.8644 42.6959 63.8644 47.8998C63.8644 53.1036 59.4851 57.117 53.6073 57.2451L48.8159 57.3494V68.6155L52.6699 68.7198C59.751 68.9119 64.9554 73.779 64.9554 80.1331C64.9554 86.4872 59.444 91.8164 52.6699 91.8164C45.8957 91.8164 41.4899 87.404 40.2875 80.1523L28.5347 82.4939C29.8166 94.1397 40.1514 103.498 52.6699 103.498C66.0518 103.498 76.9384 92.8046 76.9384 80.0535C76.9384 72.8237 73.5569 66.7735 68.3333 63.0017Z" fill="black"/>
<path d="M109.172 53.0479C105.161 53.0479 101.946 54.0462 98.9108 55.4517V44.6185C98.9108 43.0428 98.9108 42.2513 99.2397 41.5367C99.597 40.7607 100.22 40.1366 100.994 39.7798C101.709 39.4504 102.498 39.4504 104.071 39.4504H124.35L127.905 27.7671H106.081C100.243 27.7671 97.3127 27.7671 94.6621 28.9905C91.7886 30.3173 89.4769 32.6324 88.1521 35.5102C86.9304 38.1638 86.9304 41.0983 86.9304 46.9455V63.0026L96.7599 69.8673C100.184 66.8815 104.015 64.7312 109.171 64.7312C116.547 64.7312 122.526 70.9379 122.526 78.2747C122.526 85.6115 117.105 91.8183 109.171 91.8183C102.693 91.8183 97.5887 87.1076 96.0829 81.1415L84.3301 83.4831C86.8665 94.8324 96.8961 103.501 109.171 103.501C123.158 103.501 134.509 92.6839 134.509 78.5346C134.509 64.3853 123.165 53.0497 109.171 53.0497L109.172 53.0479Z" fill="black"/>
</g>
<defs>
<clipPath id="clip0_297_17084">
<rect width="163" height="129" fill="white"/>
</clipPath>
</defs>
</svg>
